# xmcd CD database file
#
# Track frame offsets:
#	150
#	8875
#	21487
#	32665
#	45514
#	57395
#	67938
#	80321
#	89965
#	101198
#	112264
#	124478
#	135168
#	147014
#	158650
#	171987
#	185289
#	199455
#	213000
#	224644
#	236476
#	249723
#	261806
#	274592
#	287539
#
# Disc length: 4004 seconds
#
# Revision: 0
# Processed by: cddbd v1.5.2PL0 Copyright (c) Steve Scherf et al.
# Submitted via: CDex 1.51
#
DISCID=770fa219
DTITLE=Buddy Guy, Magic Sam, Otis Rush - Snakebite [CD2)
DYEAR=2009
DGENRE=Blues
TTITLE0=21 Days in Jail
TTITLE1=Love Me This Way
TTITLE2=Magic Rocker
TTITLE3=My Love Is Your Love
TTITLE4=Mr Charlie
TTITLE5=Square Dance Rock (Part 1)
TTITLE6=Square Dance Rock (Part 2)
TTITLE7=Every Night About This Time
TTITLE8=Do The Camel Walk
TTITLE9=Blue Light Boogie
TTITLE10=You Don't Have to Work
TTITLE11=Out Of Bad Luck
TTITLE12=She Belongs To Me
TTITLE13=You Sure Can't Do
TTITLE14=This Is The End
TTITLE15=I Hope You Come Back Home
TTITLE16=The Way You Been Treatin' Me
TTITLE17=Sit And Cry
TTITLE18=Try To Quit You Baby
TTITLE19=You Sure Can't Do
TTITLE20=This Is The End
TTITLE21=Good Things
TTITLE22=Too Many Cooks
TTITLE23=Heavy Heart Beat
TTITLE24=God's Gift To Man
EXTD=YEAR: 2009
EXTT0=
EXTT1=
EXTT2=
EXTT3=
EXTT4=
EXTT5=
EXTT6=
EXTT7=
EXTT8=
EXTT9=
EXTT10=
EXTT11=
EXTT12=
EXTT13=
EXTT14=
EXTT15=
EXTT16=
EXTT17=
EXTT18=
EXTT19=
EXTT20=
EXTT21=
EXTT22=
EXTT23=
EXTT24=
PLAYORDER=
